<svg width="74" height="46" viewBox="0 0 74 46" fill="none" xmlns="http://www.w3.org/2000/svg">
<rect width="74" height="5" fill="#00FF29"/>
<rect x="5" width="46" height="5" transform="rotate(90 5 0)" fill="#00FF29"/>
<rect x="74" width="46" height="5" transform="rotate(90 74 0)" fill="#00FF29"/>
<rect x="51" y="8" width="5" height="5" transform="rotate(90 51 8)" fill="#00FF29"/>
<rect x="58" y="8" width="5" height="5" transform="rotate(90 58 8)" fill="#00FF29"/>
<rect x="65" y="8" width="5" height="5" transform="rotate(90 65 8)" fill="#00FF29"/>
<rect x="35" y="17" width="5" height="27" transform="rotate(90 35 17)" fill="#00FF29"/>
<rect x="65" y="17" width="5" height="27" transform="rotate(90 65 17)" fill="#00FF29"/>
<rect x="35" y="25" width="5" height="27" transform="rotate(90 35 25)" fill="#00FF29"/>
<rect x="65" y="25" width="5" height="27" transform="rotate(90 65 25)" fill="#00FF29"/>
<rect x="35" y="32" width="5" height="27" transform="rotate(90 35 32)" fill="#00FF29"/>
<rect x="65" y="32" width="5" height="27" transform="rotate(90 65 32)" fill="#00FF29"/>
<rect y="41" width="74" height="5" fill="#00FF29"/>
</svg>
