<svg width="121" height="29" viewBox="0 0 121 29" fill="none" xmlns="http://www.w3.org/2000/svg">
<rect y="3.99998" width="5" height="5" fill="#00FF29"/>
<rect x="9" y="-1.52588e-05" width="12" height="12" fill="#00FF29"/>
<rect x="25" y="3.99998" width="5" height="5" fill="#00FF29"/>
<rect x="34" y="-1.52588e-05" width="12" height="12" fill="#00FF29"/>
<rect x="50" y="3.99998" width="5" height="5" fill="#00FF29"/>
<rect x="59" y="-1.52588e-05" width="12" height="12" fill="#00FF29"/>
<rect x="75" y="3.99998" width="5" height="5" fill="#00FF29"/>
<rect x="84" y="-1.52588e-05" width="12" height="12" fill="#00FF29"/>
<rect x="100" y="3.99998" width="5" height="5" fill="#00FF29"/>
<rect x="109" y="-1.52588e-05" width="12" height="12" fill="#00FF29"/>
<rect x="121" y="25" width="5" height="5" transform="rotate(-180 121 25)" fill="#00FF29"/>
<rect x="112" y="29" width="12" height="12" transform="rotate(-180 112 29)" fill="#00FF29"/>
<rect x="96" y="25" width="5" height="5" transform="rotate(-180 96 25)" fill="#00FF29"/>
<rect x="87" y="29" width="12" height="12" transform="rotate(-180 87 29)" fill="#00FF29"/>
<rect x="71" y="25" width="5" height="5" transform="rotate(-180 71 25)" fill="#00FF29"/>
<rect x="62" y="29" width="12" height="12" transform="rotate(-180 62 29)" fill="#00FF29"/>
<rect x="46" y="25" width="5" height="5" transform="rotate(-180 46 25)" fill="#00FF29"/>
<rect x="37" y="29" width="12" height="12" transform="rotate(-180 37 29)" fill="#00FF29"/>
<rect x="21" y="25" width="5" height="5" transform="rotate(-180 21 25)" fill="#00FF29"/>
<rect x="12" y="29" width="12" height="12" transform="rotate(-180 12 29)" fill="#00FF29"/>
</svg>
