<svg width="24" height="25" viewBox="0 0 24 25" fill="none" xmlns="http://www.w3.org/2000/svg">
<rect x="16" y="4" width="2" height="2" fill="white"/>
<rect x="13.9878" y="5.21973" width="2.09267" height="2.09267" fill="white"/>
<rect x="11.8951" y="6.26605" width="2.09267" height="2.09267" fill="white"/>
<rect x="9.80243" y="7.31238" width="2.09267" height="2.09267" fill="white"/>
<rect x="7.70975" y="8.3587" width="2.09267" height="2.09267" fill="white"/>
<rect x="5.6171" y="9.40506" width="2.09267" height="2.09267" fill="white"/>
<rect x="3.52441" y="10.4514" width="2.09267" height="2.09267" fill="white"/>
<rect x="2" y="11" width="2.09267" height="2.09267" fill="white"/>
<rect x="3" y="12" width="2.09267" height="2.09267" fill="white"/>
<rect x="4.57074" y="13" width="2.09267" height="2.09267" fill="white"/>
<rect x="6" y="14" width="2.09267" height="2.09267" fill="white"/>
<rect width="2.09267" height="2.09267" transform="matrix(1 0 0 -1 6.66342 15.6831)" fill="white"/>
<rect width="2.09267" height="2.09267" transform="matrix(1 0 0 -1 6.66342 17.0927)" fill="white"/>
<rect width="2.09267" height="2.09267" transform="matrix(1 0 0 -1 6.66342 19.0927)" fill="white"/>
<rect width="2.09267" height="2.09267" transform="matrix(1 0 0 -1 6.66342 21.0927)" fill="white"/>
<rect width="2" height="2" transform="matrix(1 0 0 -1 8 19)" fill="white"/>
<rect width="2" height="2" transform="matrix(1 0 0 -1 8 20)" fill="white"/>
<rect width="2" height="2" transform="matrix(1 0 0 -1 9 19)" fill="white"/>
<rect width="4" height="2" transform="matrix(1 0 0 -1 8 18)" fill="white"/>
<rect width="2.09267" height="2.09267" transform="matrix(1 0 0 -1 9 18.0927)" fill="white"/>
<rect width="2.09267" height="2.09267" transform="matrix(1 0 0 -1 8.7561 16.7294)" fill="white"/>
<rect width="2" height="2" transform="matrix(1 0 0 -1 11 19)" fill="white"/>
<rect width="2.09267" height="2.09267" transform="matrix(1 0 0 -1 12.9414 20.0927)" fill="white"/>
<rect width="2.09267" height="2.09267" transform="matrix(1 0 0 -1 15.0341 21.0927)" fill="white"/>
<rect x="16" y="6" width="2" height="16" fill="white"/>
<path d="M16.2786 5.02622L16.103 19.9384L3.45202 12.6344L16.2786 5.02622Z" fill="white"/>
</svg>
